<?xml version="1.0" encoding="utf-8"?>
<!-- Generator: Adobe Illustrator 23.0.2, SVG Export Plug-In . SVG Version: 6.00 Build 0)  -->
<svg version="1.1" id="Calque_1" xmlns="http://www.w3.org/2000/svg" xmlns:xlink="http://www.w3.org/1999/xlink" x="0px" y="0px"
	 viewBox="0 0 512 512" style="enable-background:new 0 0 512 512;" xml:space="preserve">
<style type="text/css">
	.st0{fill:#DDC799;}
	.st1{fill:#414952;}
	.st2{fill:#23272B;}
	.st3{fill:#FFBEAA;}
	.st4{fill:#FAA68E;}
	.st5{fill:#FFCDBE;}
	.st6{fill:#555A66;}
	.st7{fill:#707789;}
	.st8{fill:#636978;}
	.st9{fill:#B06328;}
	.st10{fill:#B0C4D8;}
	.st11{fill:#99B4CD;}
	.st12{fill:#C4D7E5;}
	.st13{fill:#70B7E5;}
	.st14{fill:#92C5EB;}
	.st15{fill:#4C9CD6;}
	.st16{fill:#B0C9DB;}
	.st17{fill:#E2E7F0;}
	.st18{fill:#A35425;}
	.st19{fill:#C97629;}
	.st20{font-family:'Lato-Black';}
	.st21{font-size:82px;}
</style>
<g>
	<path class="st0" d="M512,256c0,141.4-114.6,256-256,256S0,397.4,0,256S114.6,0,256,0S512,114.6,512,256z"/>
	<g>
		<path class="st1" d="M179,344.3h154l-76.7,96L179,344.3z"/>
		<path class="st2" d="M333,344.3h-77v95.6l0.3,0.4L333,344.3z"/>
		<path class="st3" d="M294.5,373.6V348h-77v25.6c0,11.6-7.3,22-18.2,26L80.9,442.7c45.8,43,107.4,69.3,175.1,69.3
			s129.3-26.3,175.1-69.3l-118.4-43.1C301.8,395.6,294.5,385.3,294.5,373.6z"/>
		<path class="st4" d="M431.1,442.7l-118.4-43.1c-10.9-4-18.2-14.4-18.2-26V348h-38.9v164c0.1,0,0.3,0,0.4,0
			C323.7,512,385.3,485.7,431.1,442.7z"/>
		<path class="st5" d="M300,363.7L277.9,375c-13.8,7.1-30.1,7.1-43.9,0l-22-11.3c-32.7-16.8-53.3-50.5-53.3-87.3v-86.1
			c0-53.8,43.6-97.3,97.3-97.3s97.3,43.6,97.3,97.3v86.1C353.3,313.2,332.8,346.9,300,363.7z"/>
		<path class="st3" d="M256,93C255.9,93,255.7,93,256,93v287.4c7.2,0.1,14.9-1.7,21.9-5.3l22.1-11.3c32.7-16.8,53.3-50.5,53.3-87.3
			v-86.1C353.3,136.6,309.8,93,256,93z"/>
		<path class="st1" d="M333,403l-77.3,37.3L179,403L77.9,439.9C124,484.5,186.8,512,256,512c68.3,0,130.4-26.8,176.3-70.4L333,403z"
			/>
		<path class="st2" d="M333,403l-77,37.2V512c68.3,0,130.4-26.8,176.3-70.4L333,403z"/>
		<path class="st6" d="M373.8,215.9L336.1,73.1c-2.9-11-14.4-17.4-25.3-14l-54.9,17l-54.9-17c-10.9-3.4-22.4,3-25.3,14L138,215.9
			H373.8z"/>
		<path class="st1" d="M336.1,73.1c-2.9-11-14.4-17.4-25.3-14l-54.9,17v139.8h117.8L336.1,73.1z"/>
		<path class="st7" d="M148.9,175.2l-10.7,40.7h235.6l-10.7-40.7H148.9z"/>
		<path class="st8" d="M363.1,175.2H256v40.7h117.8L363.1,175.2z"/>
		<path class="st1" d="M114.3,210.5h283.5v30.4H114.3V210.5z"/>
		<path class="st2" d="M256,210.5h141.7v30.4H256V210.5z"/>
		<path class="st1" d="M333,403v-58.7l-65.7,41.3l-11.7,54.7L333,403z"/>
		<path class="st6" d="M179,403v-58.7l65.7,41.3l11.7,54.7L179,403z"/>
	</g>
	<g>
		<path class="st9" d="M135.1,354.2L135.1,354.2c0,3.9-3.3,7.2-7.3,7.2l0,0c-2.1,0-4-0.8-5.4-2.3L99.1,334c-0.8-0.8-0.8-2.1,0-2.9
			l5.4-5.4c0.8-0.8,2.1-0.8,2.9,0l25.4,23.3C134.2,350.3,135.1,352.4,135.1,354.2z"/>
		<polygon class="st10" points="103.8,326.4 99.7,330.5 93.5,324.4 97.6,320.3 		"/>
		<path class="st11" d="M100.7,327.4l1,1l2.1-2.1l-6.2-6.2l-4.2,4.1l3.1,3.1l0,0C97.8,326.2,99.5,326.2,100.7,327.4z"/>
		<path class="st12" d="M74.7,270.8c-17.3,0-31.2,13.8-31.2,30.9s13.9,30.9,31.2,30.9s31.2-13.8,31.2-30.9S92,270.8,74.7,270.8z
			 M74.7,326.4c-13.7,0-25-11.1-25-24.7s11.2-24.7,25-24.7s25,11.1,25,24.7S88.4,326.4,74.7,326.4z"/>
		<ellipse class="st13" cx="74.7" cy="301.7" rx="25" ry="24.7"/>
		<path class="st14" d="M62.4,304.6c1-7.8,7.3-14,15.2-15h0.2c3.5-0.4,3.7-5.4,0.4-6c-2.1-0.4-4.2-0.4-6.2-0.2
			c-8.1,1.2-14.6,7.6-15.6,15.5c-0.4,2.1-0.2,4.3,0.2,6.2c0.6,3.5,5.6,3.1,6-0.4C62.4,304.8,62.4,304.6,62.4,304.6z"/>
		<path class="st15" d="M51.8,303.7c0-13.6,11.2-24.7,25-24.7c6.5,0,12.1,2.5,16.6,6.2c-4.6-5.2-11.2-8.2-18.7-8.2
			c-13.7,0-25,11.1-25,24.7c0,7.4,3.3,14,8.3,18.6C54.3,315.7,51.8,310.1,51.8,303.7z"/>
		<path class="st16" d="M74.7,332.6L74.7,332.6c17.3,0,31.2-13.8,31.2-30.9l0,0c-1,0-2.1,0.8-2.1,2.1c-0.4,7-3.5,13.4-8.3,18.1
			c-4.8,4.9-11.4,8-18.7,8.7C75.5,330.5,74.7,331.6,74.7,332.6z"/>
		<path class="st17" d="M74.7,270.8L74.7,270.8c-17.3,0-31.2,13.8-31.2,30.9l0,0c1,0,2.1-0.8,2.1-2.1c0.4-6.8,3.3-13,7.7-17.5
			c5-5.2,11.9-8.7,19.4-9.3C73.9,272.8,74.7,271.8,74.7,270.8z"/>
		<path class="st18" d="M132.6,348.9l-1.2-1c1,1.2,1.7,2.9,1.7,4.5l0,0c0,2.7-3.3,3.7-5.2,1.9l-21.9-21.6c-1.2-1.2-3.1-1.2-4.4,0
			l-2.1,2.1l22.7,24.1c1.2,1.2,2.9,2.3,4.6,2.5c2.3,0.2,4.6-0.6,6-2.1c1.5-1.4,2.3-3.7,2.1-6C134.8,351.6,133.8,350.1,132.6,348.9z"
			/>
		<path class="st19" d="M111.1,334.7c-0.2,0-0.6,0-0.8-0.2l-5.2-5.2c-0.4-0.4-0.4-1,0-1.4s1-0.4,1.5,0l5.2,5.2c0.4,0.4,0.4,1,0,1.4
			C111.7,334.7,111.3,334.7,111.1,334.7z"/>
	</g>
	<g>
		<path d="M397.2,343.7c0.8-1,1.7-1.8,2.7-2.4c1-0.6,2.2-0.9,3.3-1.1c1.2-0.1,2.3,0,3.5,0.3s2.3,0.9,3.4,1.7c1,0.8,1.8,1.7,2.4,2.8
			c0.6,1.1,1,2.2,1.2,3.3c0.2,1.2,0.1,2.3-0.2,3.5c-0.3,1.2-0.8,2.2-1.6,3.2c-0.8,1-1.7,1.8-2.8,2.4c-1.1,0.6-2.2,0.9-3.3,1.1
			c-1.2,0.1-2.3,0-3.5-0.3c-1.2-0.3-2.3-0.9-3.3-1.7c-1.1-0.8-1.9-1.8-2.5-2.8c-0.6-1.1-1-2.2-1.1-3.3c-0.2-1.2-0.1-2.3,0.2-3.5
			C395.8,345.8,396.4,344.7,397.2,343.7z M427.5,289c1.7-0.1,3.5,0,5.3,0.2s3.6,0.5,5.5,1.1c1.8,0.5,3.7,1.2,5.5,2.2
			c1.9,0.9,3.7,2.1,5.6,3.6c2.6,2,4.7,4.2,6.3,6.6c1.6,2.3,2.6,4.7,3,7.2c0.5,2.4,0.4,4.9-0.2,7.3c-0.6,2.4-1.8,4.8-3.6,7
			c-1.7,2.1-3.4,3.7-5.2,4.8c-1.8,1.1-3.6,1.9-5.4,2.3c-1.8,0.4-3.5,0.7-5.3,0.7s-3.3,0-4.9-0.1s-2.9,0-4.2,0.2
			c-1.3,0.1-2.3,0.6-3.2,1.3l-5.7,4.9l-8.9-6.9l4.3-7.4c0.8-1.5,1.9-2.6,3.2-3.2c1.3-0.6,2.7-1,4.2-1.1c1.5-0.1,3.1-0.2,4.8,0
			c1.7,0.1,3.3,0.1,4.9,0c1.6-0.1,3.2-0.4,4.6-1c1.5-0.5,2.8-1.5,3.9-3c1.3-1.7,1.8-3.4,1.5-5.3c-0.3-1.8-1.5-3.5-3.4-5
			c-1.5-1.2-2.8-2-4.1-2.4c-1.2-0.5-2.3-0.8-3.3-1c-1-0.2-1.9-0.3-2.7-0.4c-0.8-0.1-1.4-0.4-1.9-0.8c-1.2-0.9-1.7-2.1-1.5-3.6
			L427.5,289z"/>
	</g>
</g>
<text transform="matrix(1 0 0 1 190.0324 154.4706)" class="st0 st20 st21">C G</text>
</svg>
