<?xml version="1.0" encoding="utf-8"?>
<!-- Generator: Adobe Illustrator 23.0.2, SVG Export Plug-In . SVG Version: 6.00 Build 0)  -->
<svg version="1.1" id="Calque_1" xmlns="http://www.w3.org/2000/svg" xmlns:xlink="http://www.w3.org/1999/xlink" x="0px" y="0px"
	 viewBox="0 0 100 100" style="enable-background:new 0 0 100 100;" xml:space="preserve">
<style type="text/css">
	.st0{fill:#F9F6F4;}
	.st1{fill:#FF8086;}
	.st2{fill:#DB4655;}
	.st3{fill:#E5646E;}
	.st4{fill:#ECEAEC;}
	.st5{fill:#FF9A9F;}
	.st6{fill:#FFFFFF;}
	.st7{fill:#DAD8DB;}
</style>
<g>
	<path class="st0" d="M100,50c0,27.6-22.4,50-50,50S0,77.6,0,50S22.4,0,50,0S100,22.4,100,50z"/>
	<path class="st1" d="M64.3,28.8L44.7,16.9c-0.9-0.5-1.8-0.8-2.8-0.8s-2,0.3-2.8,0.8L19.4,28.8c-0.8,0.5-1.5,1.2-1.9,2l1.9,21.6
		h44.8l1.9-21.6C65.7,30,65.1,29.3,64.3,28.8z"/>
	<path class="st2" d="M19.4,62.4c-1.6-1-2.6-2.8-2.6-4.7V33.4c0-0.9,0.2-1.9,0.7-2.7l24.3,14.8l0.7,22.9l-0.7,6.6
		c-1,0-2-0.3-2.8-0.8L19.4,62.4z"/>
	<path class="st3" d="M64.3,62.4c1.6-1,2.6-2.8,2.6-4.7V33.4c0-0.9-0.2-1.9-0.7-2.7L41.8,45.6v29.5c1,0,2-0.3,2.8-0.8L64.3,62.4z"/>
	<path class="st4" d="M50.5,46.5h28.3c2.4,0,4.4,1.9,4.4,4.4v28.3c0,0.8-0.2,1.5-0.6,2.2l-3.8,1H51.5c-2.4,0-4.4-1.9-4.4-4.4V50.9
		l1.2-3.8C49,46.8,49.8,46.5,50.5,46.5L50.5,46.5z"/>
	<ellipse transform="matrix(0.92 -0.392 0.392 0.92 -18.4945 15.5313)" class="st5" cx="28.8" cy="53.1" rx="2" ry="3.6"/>
	<ellipse class="st6" cx="41.9" cy="30.2" rx="3.6" ry="2.3"/>
	<ellipse class="st6" cx="53" cy="30.2" rx="3.6" ry="2.3"/>
	<ellipse class="st6" cx="30.7" cy="30.2" rx="3.6" ry="2.3"/>
	<g>
		<circle class="st3" cx="64.7" cy="65" r="3.3"/>
		<circle class="st3" cx="54.9" cy="55.2" r="3.3"/>
		<circle class="st3" cx="74.5" cy="74.8" r="3.3"/>
	</g>
	<path class="st7" d="M54.9,81.4c-3.6,0-6.5-2.9-6.5-6.5l0-27.7c-1.3,0.8-2.2,2.2-2.2,3.8v28.3c0,2.4,1.9,4.4,4.4,4.4h28.3
		c1.6,0,3-0.9,3.8-2.2H54.9z"/>
</g>
</svg>
